<mxfile host="Electron" agent="Mozilla/5.0 (X11; Linux x86_64) AppleWebKit/537.36 (KHTML, like Gecko) draw.io/24.7.8 Chrome/128.0.6613.36 Electron/32.0.1 Safari/537.36" version="24.7.8">
  <diagram name="Page-1" id="Mw7mx2BJm_VNAYRjUd4e">
    <mxGraphModel dx="963" dy="573" grid="1" gridSize="10" guides="1" tooltips="1" connect="1" arrows="1" fold="1" page="1" pageScale="1" pageWidth="850" pageHeight="1100" math="0" shadow="0">
      <root>
        <mxCell id="0" />
        <mxCell id="1" parent="0" />
        <mxCell id="m4BdSE6QHmhiQMImwujt-6" style="edgeStyle=orthogonalEdgeStyle;rounded=0;orthogonalLoop=1;jettySize=auto;html=1;exitX=1;exitY=0.5;exitDx=0;exitDy=0;entryX=0;entryY=0.5;entryDx=0;entryDy=0;fillColor=#ffe6cc;strokeColor=#d79b00;" edge="1" parent="1" source="m4BdSE6QHmhiQMImwujt-1" target="m4BdSE6QHmhiQMImwujt-2">
          <mxGeometry relative="1" as="geometry" />
        </mxCell>
        <mxCell id="m4BdSE6QHmhiQMImwujt-1" value="Start" style="ellipse;whiteSpace=wrap;html=1;aspect=fixed;fillColor=#ffe6cc;strokeColor=#d79b00;" vertex="1" parent="1">
          <mxGeometry x="110" y="360" width="80" height="80" as="geometry" />
        </mxCell>
        <mxCell id="m4BdSE6QHmhiQMImwujt-7" style="edgeStyle=orthogonalEdgeStyle;rounded=0;orthogonalLoop=1;jettySize=auto;html=1;exitX=1;exitY=0.5;exitDx=0;exitDy=0;entryX=0;entryY=0.5;entryDx=0;entryDy=0;fillColor=#ffe6cc;strokeColor=#d79b00;" edge="1" parent="1" source="m4BdSE6QHmhiQMImwujt-2" target="m4BdSE6QHmhiQMImwujt-3">
          <mxGeometry relative="1" as="geometry" />
        </mxCell>
        <mxCell id="m4BdSE6QHmhiQMImwujt-2" value="Configure" style="rounded=0;whiteSpace=wrap;html=1;fillColor=#ffe6cc;strokeColor=#d79b00;" vertex="1" parent="1">
          <mxGeometry x="240" y="370" width="120" height="60" as="geometry" />
        </mxCell>
        <mxCell id="m4BdSE6QHmhiQMImwujt-8" style="edgeStyle=orthogonalEdgeStyle;rounded=0;orthogonalLoop=1;jettySize=auto;html=1;exitX=1;exitY=0.5;exitDx=0;exitDy=0;entryX=0;entryY=0.5;entryDx=0;entryDy=0;fillColor=#ffe6cc;strokeColor=#d79b00;" edge="1" parent="1" source="m4BdSE6QHmhiQMImwujt-3" target="m4BdSE6QHmhiQMImwujt-4">
          <mxGeometry relative="1" as="geometry" />
        </mxCell>
        <mxCell id="m4BdSE6QHmhiQMImwujt-3" value="Run" style="rounded=0;whiteSpace=wrap;html=1;fillColor=#ffe6cc;strokeColor=#d79b00;" vertex="1" parent="1">
          <mxGeometry x="410" y="370" width="120" height="60" as="geometry" />
        </mxCell>
        <mxCell id="m4BdSE6QHmhiQMImwujt-9" style="edgeStyle=orthogonalEdgeStyle;rounded=0;orthogonalLoop=1;jettySize=auto;html=1;exitX=1;exitY=0.5;exitDx=0;exitDy=0;entryX=0;entryY=0.5;entryDx=0;entryDy=0;fillColor=#ffe6cc;strokeColor=#d79b00;" edge="1" parent="1" source="m4BdSE6QHmhiQMImwujt-4" target="m4BdSE6QHmhiQMImwujt-5">
          <mxGeometry relative="1" as="geometry" />
        </mxCell>
        <mxCell id="m4BdSE6QHmhiQMImwujt-4" value="Analyze" style="rounded=0;whiteSpace=wrap;html=1;fillColor=#ffe6cc;strokeColor=#d79b00;" vertex="1" parent="1">
          <mxGeometry x="580" y="370" width="120" height="60" as="geometry" />
        </mxCell>
        <mxCell id="m4BdSE6QHmhiQMImwujt-5" value="Next step" style="ellipse;whiteSpace=wrap;html=1;aspect=fixed;fillColor=#ffe6cc;strokeColor=#d79b00;" vertex="1" parent="1">
          <mxGeometry x="750" y="360" width="80" height="80" as="geometry" />
        </mxCell>
        <mxCell id="m4BdSE6QHmhiQMImwujt-10" value="Solid mesh file&amp;nbsp;" style="text;html=1;align=left;verticalAlign=top;whiteSpace=wrap;rounded=0;" vertex="1" parent="1">
          <mxGeometry x="110" y="450" width="90" height="30" as="geometry" />
        </mxCell>
        <mxCell id="m4BdSE6QHmhiQMImwujt-11" value="dynamicModel.inp" style="text;html=1;align=left;verticalAlign=top;whiteSpace=wrap;rounded=0;" vertex="1" parent="1">
          <mxGeometry x="240" y="450" width="90" height="30" as="geometry" />
        </mxCell>
        <mxCell id="m4BdSE6QHmhiQMImwujt-12" value="ccx_preCICE" style="text;html=1;align=left;verticalAlign=top;whiteSpace=wrap;rounded=0;" vertex="1" parent="1">
          <mxGeometry x="410" y="450" width="90" height="30" as="geometry" />
        </mxCell>
        <mxCell id="m4BdSE6QHmhiQMImwujt-13" value="dynamicModel.frd&lt;div&gt;dynamicModel.dat&lt;br&gt;convert2vtu.py&lt;br&gt;ParaView&lt;/div&gt;" style="text;html=1;align=left;verticalAlign=top;whiteSpace=wrap;rounded=0;" vertex="1" parent="1">
          <mxGeometry x="580" y="450" width="110" height="70" as="geometry" />
        </mxCell>
        <mxCell id="m4BdSE6QHmhiQMImwujt-14" value="Fluid meshing&amp;nbsp;" style="text;html=1;align=left;verticalAlign=top;whiteSpace=wrap;rounded=0;" vertex="1" parent="1">
          <mxGeometry x="750" y="450" width="90" height="30" as="geometry" />
        </mxCell>
      </root>
    </mxGraphModel>
  </diagram>
</mxfile>
